# xmcd CD database file
#
# Track frame offsets:
#	150
#	14517
#	29662
#	42240
#	55827
#	70902
#	80280
#	100647
#	117790
#	129012
#	138680
#	154277
#	170455
#	183395
#	195115
#	207722
#	215760
#	236500
#	250827
#	264482
#	283115
#	292662
#	304580
#
# Disc length: 4234 seconds
#
# Revision: 0
# Processed by: cddbd v1.4PL0 Copyright (c) Steve Scherf et al.
# Submitted via: CDex 1.51
#
DISCID=48108817
DTITLE=Claude Thornhill and His Orchestra - The 1948 Transcription Performances
DYEAR=1948
DGENRE=Jazz
TTITLE0=Poor Little Rich Girl
TTITLE1=Adios
TTITLE2=Where Or When
TTITLE3=Spanish Dance
TTITLE4=Anthropology
TTITLE5=Baja
TTITLE6=Arab Dance
TTITLE7=Robbins Nest
TTITLE8=Royal Garden Blues
TTITLE9=Polka Dots and Moonbeams
TTITLE10=There's A Small Hotel
TTITLE11=I Knew You When
TTITLE12=Someone To Watch Over Me
TTITLE13=Sometimes I'm Happy
TTITLE14=I Don't Know Why
TTITLE15=April In Paris
TTITLE16=Begin The Beguine
TTITLE17=Godchild
TTITLE18=The Song Is You
TTITLE19=La Paloma
TTITLE20=Lover Man
TTITLE21=To Each His Own
TTITLE22=Elevation
EXTD=YEAR: 1948
EXTT0=
EXTT1=
EXTT2=
EXTT3=
EXTT4=
EXTT5=
EXTT6=
EXTT7=
EXTT8=
EXTT9=
EXTT10=
EXTT11=
EXTT12=
EXTT13=
EXTT14=
EXTT15=
EXTT16=
EXTT17=
EXTT18=
EXTT19=
EXTT20=
EXTT21=
EXTT22=
PLAYORDER=
